<?xml version="1.0" standalone="no"?>
<!DOCTYPE svg PUBLIC "-//W3C//DTD SVG 20010904//EN"
 "http://www.w3.org/TR/2001/REC-SVG-20010904/DTD/svg10.dtd">
<svg version="1.0" xmlns="http://www.w3.org/2000/svg"
 width="135.000000pt" height="136.000000pt" viewBox="0 0 135.000000 136.000000"
 preserveAspectRatio="xMidYMid meet">

<g transform="translate(0.000000,136.000000) scale(0.100000,-0.100000)"
fill="#000000" stroke="none">
<path d="M630 1311 c0 -23 -7 -46 -16 -55 -14 -15 -9 -16 56 -16 63 0 70 2 57
15 -9 8 -18 33 -22 55 -6 38 -9 40 -41 40 -33 0 -34 -1 -34 -39z"/>
<path d="M800 1295 c-11 -25 -24 -45 -30 -45 -28 0 -5 -17 38 -27 26 -6 54
-14 62 -17 13 -5 14 4 12 54 -3 54 -7 62 -29 71 -34 13 -32 14 -53 -36z"/>
<path d="M481 1321 c-10 -6 -15 -28 -15 -63 l-1 -53 60 15 60 14 -22 22 c-12
12 -25 34 -29 48 -6 27 -27 33 -53 17z"/>
<path d="M958 1240 c-12 -16 -30 -33 -41 -36 -16 -5 -11 -12 34 -37 30 -17 81
-58 114 -91 220 -220 220 -563 1 -782 -221 -220 -559 -220 -782 1 -69 69 -144
192 -144 236 0 11 -4 19 -10 19 -5 0 -10 -4 -10 -10 0 -5 -18 -19 -40 -30 -42
-22 -46 -30 -29 -61 8 -16 19 -20 58 -18 26 1 53 -1 59 -5 21 -12 13 -41 -18
-71 -35 -34 -36 -36 -12 -65 17 -22 19 -22 50 -6 39 20 66 20 82 1 10 -12 8
-22 -13 -54 l-26 -39 24 -22 c25 -23 47 -19 75 14 16 20 54 20 70 1 10 -12 10
-21 1 -41 -16 -37 -14 -62 8 -74 30 -16 37 -13 60 26 17 29 26 35 49 32 24 -3
27 -7 30 -48 4 -47 13 -60 49 -60 17 0 25 9 33 39 18 69 84 69 95 0 7 -38 9
-40 38 -37 30 3 32 6 35 45 2 23 10 47 17 53 23 19 61 4 75 -30 13 -31 29 -37
59 -20 16 8 17 16 10 57 -8 40 -7 50 8 61 20 14 50 7 79 -19 25 -23 47 -24 64
-4 11 13 9 24 -10 61 -21 42 -21 47 -6 62 14 14 20 15 49 3 62 -25 66 -24 78
3 11 23 9 29 -14 54 -28 29 -37 81 -14 83 6 1 33 1 60 -1 26 -1 48 2 48 7 8
49 5 55 -33 79 -29 19 -38 31 -36 47 2 17 11 23 43 27 53 7 65 16 65 46 0 25
-17 37 -73 49 -25 5 -28 10 -25 38 2 26 9 34 36 43 43 14 51 24 45 57 -5 25
-9 27 -54 27 -39 0 -50 4 -60 22 -11 20 -8 25 27 54 35 30 37 34 26 58 -12 28
-34 32 -78 16 -19 -7 -30 -7 -40 1 -20 17 -17 63 6 84 25 22 26 47 2 68 -17
15 -21 15 -54 -8 -45 -30 -64 -31 -78 -4 -9 16 -8 30 5 62 16 39 15 42 -1 54
-27 20 -41 16 -66 -17z"/>
<path d="M316 1245 c-19 -14 -19 -16 -1 -54 10 -22 15 -48 11 -57 -6 -16 -5
-16 16 0 13 9 37 23 53 32 l30 16 -36 39 c-40 43 -45 45 -73 24z"/>
<path d="M627 1203 c-2 -5 -1 -19 4 -33 7 -23 7 -23 8 8 1 31 -3 40 -12 25z"/>
<path d="M669 1208 c-5 -17 -4 -50 3 -54 4 -3 8 9 8 25 0 17 -2 31 -5 31 -3 0
-5 -1 -6 -2z"/>
<path d="M560 1178 c0 -15 5 -30 11 -33 16 -11 17 -2 3 30 l-13 30 -1 -27z"/>
<path d="M737 1193 c-4 -3 -7 -16 -6 -27 0 -19 1 -19 10 3 10 24 8 36 -4 24z"/>
<path d="M522 1159 c6 -16 13 -28 15 -25 8 8 -6 56 -17 56 -5 0 -5 -13 2 -31z"/>
<path d="M771 1183 c0 -6 -4 -20 -7 -30 -5 -14 -4 -15 5 -7 7 7 11 20 8 30 -3
11 -5 14 -6 7z"/>
<path d="M797 1177 c-11 -29 -9 -43 4 -30 6 6 9 19 7 29 -3 18 -4 18 -11 1z"/>
<path d="M486 1155 c6 -31 11 -41 18 -34 2 2 -2 18 -10 34 l-14 30 6 -30z"/>
<path d="M862 1145 c-17 -38 -14 -43 8 -15 21 27 25 40 12 40 -5 0 -14 -11
-20 -25z"/>
<path d="M190 1135 l-23 -24 25 -33 c14 -18 27 -39 29 -46 3 -8 21 5 49 33 34
35 40 45 26 45 -11 0 -34 11 -51 25 l-32 24 -23 -24z"/>
<path d="M446 1135 c9 -14 19 -24 21 -21 7 7 -16 46 -28 46 -5 0 -2 -11 7 -25z"/>
<path d="M900 1131 c-16 -31 -11 -38 9 -14 10 12 22 19 26 15 5 -4 5 -1 1 6
-10 17 -24 15 -36 -7z"/>
<path d="M390 1119 c0 -5 4 -9 9 -9 5 0 17 -3 27 -7 11 -4 15 -3 11 4 -9 14
-47 24 -47 12z"/>
<path d="M563 1105 c-77 -21 -129 -51 -186 -103 -45 -43 -107 -133 -107 -157
0 -5 14 15 31 45 68 125 184 198 337 215 70 8 174 -14 244 -52 94 -51 175
-161 205 -278 l13 -50 -5 50 c-12 115 -108 241 -230 301 -64 32 -85 37 -162
40 -58 3 -106 -1 -140 -11z"/>
<path d="M940 1105 c-6 -8 -10 -19 -8 -24 1 -5 11 2 21 15 19 26 8 34 -13 9z"/>
<path d="M340 1101 c0 -10 50 -25 58 -17 2 3 -7 10 -22 16 -33 12 -36 12 -36
1z"/>
<path d="M320 1082 c0 -5 10 -17 21 -28 22 -19 22 -19 10 3 -12 24 -31 39 -31
25z"/>
<path d="M985 1070 c-10 -11 -16 -22 -13 -25 3 -3 13 4 23 15 10 11 16 22 13
25 -3 3 -13 -4 -23 -15z"/>
<path d="M1005 1050 c-27 -30 -12 -34 15 -5 13 14 19 25 13 25 -5 0 -18 -9
-28 -20z"/>
<path d="M1038 1020 c-3 -18 0 -29 5 -27 13 4 21 57 8 57 -5 0 -11 -14 -13
-30z"/>
<path d="M280 1030 c0 -5 4 -10 9 -10 5 0 18 -3 28 -6 16 -5 16 -4 -1 10 -23
18 -36 20 -36 6z"/>
<path d="M846 1019 c-34 -21 -50 -44 -42 -64 3 -8 1 -28 -4 -44 -5 -19 -5 -31
1 -31 5 0 9 -7 9 -15 0 -8 -5 -15 -11 -15 -5 0 -7 5 -4 10 3 6 2 10 -4 10 -6
0 -8 -12 -5 -29 3 -16 1 -39 -6 -51 -11 -20 -10 -22 3 -17 11 4 14 2 10 -9 -4
-12 1 -12 31 3 37 19 46 37 22 46 -19 7 -16 45 3 52 8 3 18 0 23 -7 5 -9 8 -6
8 10 0 19 -4 21 -25 16 -16 -4 -25 -2 -25 6 0 6 9 14 20 17 24 6 26 29 4 41
-14 8 -13 13 7 46 12 20 20 38 18 40 -2 2 -17 -5 -33 -15z"/>
<path d="M81 984 c-11 -25 -10 -29 16 -50 15 -13 31 -23 35 -24 4 0 8 -9 10
-21 2 -15 11 -4 34 42 l31 64 -31 1 c-17 1 -42 5 -57 9 -21 5 -27 2 -38 -21z"/>
<path d="M254 995 c4 -13 2 -16 -9 -11 -20 7 -19 -4 3 -20 20 -16 36 -18 27
-5 -3 5 2 11 12 13 13 2 11 7 -12 22 -26 17 -28 17 -21 1z"/>
<path d="M1060 985 c-20 -24 -6 -28 15 -5 10 11 13 20 8 20 -6 0 -16 -7 -23
-15z"/>
<path d="M1076 955 c-16 -12 -17 -15 -4 -15 8 0 21 7 28 15 16 19 1 19 -24 0z"/>
<path d="M1090 930 c-14 -11 -22 -20 -18 -20 14 0 58 23 58 32 0 13 -13 9 -40
-12z"/>
<path d="M200 932 c0 -13 42 -34 51 -25 5 5 -4 14 -21 20 -17 6 -30 8 -30 5z"/>
<path d="M386 909 c-61 -17 -106 -81 -109 -157 -2 -38 -6 -47 -20 -46 -28 3
-19 -23 12 -34 31 -11 51 -50 32 -61 -6 -4 -12 -21 -14 -39 -6 -51 -14 -48
-26 10 -16 86 -21 96 -16 39 10 -120 112 -264 229 -321 170 -84 371 -51 504
82 61 60 112 156 118 219 l3 44 -9 -42 c-17 -81 -89 -211 -109 -199 -4 3 -20
-1 -35 -9 -29 -15 -66 -6 -66 16 0 6 -4 8 -9 4 -5 -3 -20 9 -32 27 -13 18 -28
36 -34 40 -16 12 -27 9 -22 -4 4 -13 -19 -68 -29 -68 -3 0 -3 23 0 50 3 28 2
50 -3 50 -13 0 -20 -61 -14 -128 4 -46 9 -59 19 -55 8 3 14 0 14 -7 0 -6 -4
-9 -9 -5 -6 3 -15 -3 -20 -13 -7 -12 -19 -18 -33 -16 -13 1 -66 8 -118 15
-115 14 -140 24 -82 34 32 5 42 11 42 26 0 10 -6 19 -12 20 -7 0 -2 5 12 10
15 6 55 7 98 3 64 -6 72 -5 66 10 -9 22 -45 30 -110 22 -32 -4 -54 -2 -54 3 0
6 -35 11 -77 13 l-78 3 -8 49 c-4 27 -5 51 -2 54 3 3 30 4 61 3 46 -2 56 1 51
12 -3 8 0 20 6 26 9 10 6 10 -16 2 -32 -12 -77 -15 -62 -3 10 7 30 36 42 61 3
7 0 17 -7 21 -7 4 -10 16 -6 26 7 23 -8 49 -22 40 -6 -3 -12 -1 -14 5 -2 6
-16 12 -31 12 -33 2 -30 18 5 28 19 5 25 3 22 -5 -2 -6 4 -12 15 -13 16 -1 17
2 8 26 -6 16 -7 36 -4 45 6 15 9 15 37 1 16 -8 37 -27 46 -40 16 -24 17 -24
30 -8 12 16 15 16 24 3 8 -13 10 -12 10 5 0 17 2 17 10 5 5 -8 10 -10 10 -4 0
21 -45 78 -75 95 -37 20 -100 29 -139 18z m128 -71 c-5 -8 -1 -9 12 -4 14 5
16 4 7 -5 -6 -6 -16 -8 -22 -5 -14 9 -14 26 0 26 5 0 7 -5 3 -12z m28 -40 c-7
-7 -12 -8 -12 -2 0 14 12 26 19 19 2 -3 -1 -11 -7 -17z m-138 -66 c2 -4 -4 -8
-15 -8 -10 0 -19 4 -19 8 0 4 6 8 14 8 8 0 17 -4 20 -8z m11 -71 c-3 -5 -1
-12 5 -16 5 -3 10 -1 10 4 0 6 5 11 10 11 16 0 12 -20 -6 -27 -9 -3 -20 0 -25
8 -12 19 -11 29 2 29 5 0 8 -4 4 -9z m405 -225 c0 -3 -4 -8 -10 -11 -5 -3 -10
-1 -10 4 0 6 5 11 10 11 6 0 10 -2 10 -4z"/>
<path d="M186 894 c-7 -19 -8 -17 21 -33 13 -6 24 -7 27 -2 4 5 -6 14 -21 19
-19 7 -22 11 -10 11 10 1 15 6 12 11 -9 15 -22 12 -29 -6z"/>
<path d="M1105 879 c-11 -16 -2 -17 25 -2 24 12 24 13 3 13 -12 0 -25 -5 -28
-11z"/>
<path d="M1133 853 c-22 -4 -33 -23 -13 -23 5 0 7 -6 4 -14 -4 -10 2 -12 22
-8 24 4 25 6 11 17 -12 9 -14 14 -5 23 7 7 10 11 8 11 -3 -1 -15 -4 -27 -6z"/>
<path d="M24 824 c-7 -29 0 -38 47 -62 49 -24 53 -65 8 -81 -18 -6 -41 -11
-51 -11 -16 0 -19 -6 -16 -32 2 -27 9 -34 33 -41 17 -5 41 -12 55 -16 l25 -7
0 105 c0 58 3 120 7 136 l6 30 -54 2 c-50 2 -54 0 -60 -23z"/>
<path d="M174 841 c8 -12 46 -21 46 -11 0 8 -24 20 -41 20 -6 0 -8 -4 -5 -9z"/>
<path d="M256 815 c-3 -9 -6 -24 -5 -33 0 -9 5 -4 10 12 9 32 6 48 -5 21z"/>
<path d="M166 812 c-8 -14 37 -23 49 -10 7 8 5 9 -6 5 -9 -3 -21 -1 -27 5 -6
6 -12 6 -16 0z"/>
<path d="M160 779 c0 -5 4 -9 9 -9 5 0 16 -3 25 -6 9 -3 16 -2 16 4 0 5 -11
12 -25 14 -14 3 -25 1 -25 -3z"/>
<path d="M590 770 c-12 -8 -12 -10 -1 -10 11 0 11 -3 1 -15 -10 -13 -9 -15 9
-15 22 0 24 4 13 32 -5 13 -11 15 -22 8z"/>
<path d="M1125 770 c4 -6 11 -8 16 -5 14 9 11 15 -7 15 -8 0 -12 -5 -9 -10z"/>
<path d="M242 740 c0 -14 2 -19 5 -12 2 6 2 18 0 25 -3 6 -5 1 -5 -13z"/>
<path d="M762 730 c0 -14 2 -19 5 -12 2 6 2 18 0 25 -3 6 -5 1 -5 -13z"/>
<path d="M1146 735 c-16 -12 -17 -15 -4 -15 8 0 21 7 28 15 16 19 1 19 -24 0z"/>
<path d="M151 726 c12 -10 59 -15 59 -6 0 5 -14 10 -32 10 -17 0 -29 -2 -27
-4z"/>
<path d="M598 713 c7 -3 16 -2 19 1 4 3 -2 6 -13 5 -11 0 -14 -3 -6 -6z"/>
<path d="M1098 690 c2 -16 6 -30 8 -30 2 0 4 14 4 30 0 17 -4 30 -8 30 -5 0
-7 -13 -4 -30z"/>
<path d="M546 675 c-3 -9 0 -15 9 -15 9 0 12 6 9 15 -4 8 -7 15 -9 15 -2 0 -5
-7 -9 -15z"/>
<path d="M771 644 c0 -11 3 -14 6 -6 3 7 2 16 -1 19 -3 4 -6 -2 -5 -13z"/>
<path d="M164 615 c-4 -9 -2 -21 4 -27 15 -15 44 -1 40 19 -4 23 -36 29 -44 8z"/>
<path d="M796 615 c-3 -8 -1 -15 4 -15 13 0 22 18 11 24 -5 3 -11 -1 -15 -9z"/>
<path d="M1140 615 c-9 -11 -10 -19 -3 -26 17 -17 48 -6 48 16 0 25 -28 31
-45 10z"/>
<path d="M760 585 c0 -8 4 -15 10 -15 5 0 7 7 4 15 -4 8 -8 15 -10 15 -2 0 -4
-7 -4 -15z"/>
<path d="M638 543 c-53 -15 -53 -15 -63 -60 l-6 -32 53 6 c29 3 57 9 61 13 5
4 7 25 5 47 l-3 40 -47 -14z"/>
<path d="M787 536 c3 -16 10 -23 19 -19 13 5 12 8 -2 24 -22 24 -22 24 -17 -5z"/>
<path d="M841 481 c12 -17 18 -34 14 -42 -5 -8 -4 -10 3 -5 17 10 14 27 -7 54
-28 32 -35 27 -10 -7z"/>
<path d="M630 346 c0 -2 9 -6 20 -9 11 -3 20 -1 20 4 0 5 -9 9 -20 9 -11 0
-20 -2 -20 -4z"/>
<path d="M356 305 c-20 -31 -21 -41 -1 -25 13 10 15 9 15 -10 0 -22 0 -22 21
4 17 21 19 29 9 41 -17 21 -25 19 -44 -10z"/>
<path d="M951 318 c-1 -11 -6 -15 -16 -12 -8 4 -15 1 -15 -5 0 -6 -7 -11 -15
-11 -21 0 -29 -24 -15 -49 13 -25 32 -28 23 -3 -6 14 -4 15 9 4 10 -8 19 -9
22 -4 3 6 -1 12 -9 16 -16 6 -21 36 -6 36 5 0 17 -7 26 -16 23 -24 28 -11 11
27 -8 20 -15 27 -15 17z"/>
<path d="M406 266 c-9 -14 -12 -27 -8 -30 5 -3 16 8 26 25 21 35 5 39 -18 5z"/>
<path d="M435 249 c-14 -26 -14 -30 0 -35 25 -10 45 4 45 30 0 37 -27 40 -45
5z m35 -3 c0 -3 -4 -8 -10 -11 -5 -3 -10 -1 -10 4 0 6 5 11 10 11 6 0 10 -2
10 -4z"/>
<path d="M825 250 c-3 -6 -4 -19 0 -29 3 -12 0 -21 -10 -24 -10 -4 -17 2 -21
18 -3 14 -10 25 -15 25 -8 0 -3 -43 7 -62 6 -9 44 3 44 14 0 5 6 8 13 7 27 -3
37 2 37 19 0 33 -40 56 -55 32z m35 -26 c0 -8 -4 -12 -10 -9 -5 3 -10 10 -10
16 0 5 5 9 10 9 6 0 10 -7 10 -16z"/>
<path d="M491 223 c-12 -26 -3 -42 22 -43 12 0 8 18 -5 23 -8 3 -5 6 5 6 10 1
15 6 12 11 -3 6 -1 10 5 10 6 0 8 5 5 10 -11 18 -32 10 -44 -17z"/>
<path d="M578 195 c4 -36 22 -39 22 -4 0 10 5 19 10 19 6 0 10 5 10 10 0 6
-10 10 -23 10 -20 0 -23 -4 -19 -35z"/>
<path d="M630 215 c-17 -20 -8 -49 16 -53 26 -4 38 22 24 49 -13 23 -23 24
-40 4z m30 -20 c0 -8 -4 -15 -10 -15 -5 0 -10 7 -10 15 0 8 5 15 10 15 6 0 10
-7 10 -15z"/>
<path d="M716 214 c-6 -16 9 -54 22 -54 21 1 33 19 26 43 -7 30 -38 37 -48 11z
m31 -19 c0 -8 -4 -15 -9 -15 -4 0 -8 7 -8 15 0 8 4 15 8 15 5 0 9 -7 9 -15z"/>
</g>
</svg>
